<svg width="29" height="27" viewBox="0 0 29 27" fill="none" xmlns="http://www.w3.org/2000/svg">
<path d="M24.2642 14.9392V10.1342C24.2642 8.24856 24.2642 7.30575 23.6784 6.71996C23.0926 6.13417 22.1498 6.13417 20.2642 6.13417H16.0581C15.2201 6.13417 14.801 6.13417 14.4262 5.9749C14.0513 5.81563 13.7605 5.51399 13.1787 4.91072L11.293 2.95512C10.7113 2.35184 10.4204 2.05021 10.0455 1.89093C9.67069 1.73166 9.25166 1.73166 8.4136 1.73166H5.62265C3.73703 1.73166 2.79422 1.73166 2.20844 2.31745C1.62265 2.90323 1.62265 3.84604 1.62265 5.73166V18.2767C1.62265 20.1624 1.62265 21.1052 2.20844 21.6909C2.79422 22.2767 3.73703 22.2767 5.62265 22.2767H17.1887" stroke="current" stroke-width="2"/>
<path d="M20.0189 22.2768H24.2641M24.2641 22.2768H28.5094M24.2641 22.2768V26.6793M24.2641 22.2768V17.8742" stroke="current" stroke-width="2"/>
</svg>
