<svg width="25" height="27" viewBox="0 0 25 27" fill="none" xmlns="http://www.w3.org/2000/svg">
<path d="M6.96436 14.849L15.1405 14.849" fill="none" stroke="current" stroke-width="2" stroke-linecap="round"/>
<path d="M6.96436 9.56601L12.4151 9.56601" fill="none" stroke="current" stroke-width="2" stroke-linecap="round"/>
<path d="M6.96436 20.132L12.4151 20.132" fill="none" stroke="current" stroke-width="2" stroke-linecap="round"/>
<path d="M20.5912 14.849V19.4151C20.5912 22.2435 20.5912 23.6577 19.7125 24.5364C18.8338 25.4151 17.4196 25.4151 14.5912 25.4151H7.51361C4.68518 25.4151 3.27097 25.4151 2.39229 24.5364C1.51361 23.6577 1.51361 22.2435 1.51361 19.4151V7.64149C1.51361 4.81305 1.51361 3.39884 2.39229 2.52016C3.27097 1.64148 4.68518 1.64148 7.51361 1.64148H9.68971" stroke="current" stroke-width="2"/>
<path d="M19.2285 1.64148L19.2285 9.56601" fill="none" stroke="current" stroke-width="2" stroke-linecap="round"/>
<path d="M23.3166 5.60376L15.1405 5.60376" fill="none" stroke="current" stroke-width="2" stroke-linecap="round"/>
</svg>