<svg width="auto" height="auto" viewBox="0 0 34 34" fill="none" xmlns="http://www.w3.org/2000/svg">
<path d="M7.56128 10.148C7.7002 8.89774 7.76965 8.27263 7.90358 7.74205C8.70179 4.57972 11.3398 2.21858 14.571 1.77446C15.1131 1.69995 15.742 1.69995 17 1.69995V1.69995C18.2579 1.69995 18.8868 1.69995 19.4289 1.77446C22.6601 2.21858 25.2981 4.57972 26.0963 7.74205C26.2302 8.27263 26.2997 8.89774 26.4386 10.148L26.8667 14.0005C27.0065 15.259 27.0764 15.8882 27.2421 16.4933C27.3243 16.7936 27.4239 17.0888 27.5405 17.3774C27.7755 17.9591 28.1012 18.502 28.7526 19.5878L30.4826 22.471C31.2883 23.8139 31.6912 24.4853 31.404 24.9926C31.1167 25.5 30.3337 25.5 28.7676 25.5H5.23234C3.66623 25.5 2.88317 25.5 2.59594 24.9926C2.30871 24.4853 2.71159 23.8139 3.51735 22.471L5.24727 19.5878C5.89871 18.502 6.22443 17.9591 6.45941 17.3774C6.576 17.0888 6.67565 16.7936 6.75783 16.4933C6.92348 15.8882 6.99339 15.259 7.13322 14.0005L7.56128 10.148Z" fill="none" stroke="current" stroke-width="2"/>
<path d="M10.2 25.5C10.2 26.393 10.3759 27.2773 10.7177 28.1023C11.0594 28.9273 11.5603 29.6769 12.1917 30.3084C12.8232 30.9398 13.5728 31.4407 14.3978 31.7824C15.2228 32.1242 16.1071 32.3 17 32.3C17.893 32.3 18.7773 32.1242 19.6023 31.7824C20.4273 31.4407 21.1769 30.9398 21.8084 30.3084C22.4398 29.6769 22.9407 28.9273 23.2824 28.1023C23.6242 27.2773 23.8 26.393 23.8 25.5" fill="none" stroke="current" stroke-width="2" stroke-linecap="round"/>
</svg>
