<svg viewBox="0 0 30 33" fill="none" xmlns="http://www.w3.org/2000/svg">
<path d="M1.875 15.9782C1.875 13.4771 1.875 12.2265 2.38961 11.1273C2.90423 10.028 3.87069 9.21414 5.8036 7.58643L7.6786 6.00748C11.1723 3.0654 12.9192 1.59436 15 1.59436C17.0808 1.59436 18.8277 3.0654 22.3214 6.00748L24.1964 7.58643C26.1293 9.21414 27.0958 10.028 27.6104 11.1273C28.125 12.2265 28.125 13.4771 28.125 15.9782V23.7895C28.125 27.263 28.125 28.9997 27.0266 30.0788C25.9283 31.1579 24.1605 31.1579 20.625 31.1579H9.375C5.83947 31.1579 4.0717 31.1579 2.97335 30.0788C1.875 28.9997 1.875 27.263 1.875 23.7895V15.9782Z" fill="none" stroke="current" stroke-width="current"/>
<path d="M19.6875 31.1579V21.1052C19.6875 20.5529 19.2398 20.1052 18.6875 20.1052H11.3125C10.7602 20.1052 10.3125 20.5529 10.3125 21.1052V31.1579" fill="none" stroke="current" stroke-width="current" stroke-linecap="round" stroke-linejoin="round"/>
</svg>
