<svg width="11" height="12" viewBox="0 0 11 12" fill="none" xmlns="http://www.w3.org/2000/svg">
<path d="M1.5 6.9C1.5 6.5284 1.5 6.3426 1.52462 6.18713C1.66017 5.33135 2.33135 4.66017 3.18713 4.52462C3.3426 4.5 3.5284 4.5 3.9 4.5H7.1C7.4716 4.5 7.6574 4.5 7.81287 4.52462C8.66865 4.66017 9.33983 5.33135 9.47538 6.18713C9.5 6.3426 9.5 6.5284 9.5 6.9V6.9C9.5 7.4574 9.5 7.73611 9.46307 7.9693C9.25975 9.25298 8.25298 10.2598 6.9693 10.4631C6.73611 10.5 6.4574 10.5 5.9 10.5H5.1C4.5426 10.5 4.26389 10.5 4.0307 10.4631C2.74702 10.2598 1.74025 9.25298 1.53693 7.9693C1.5 7.73611 1.5 7.4574 1.5 6.9V6.9Z" stroke="#281461" stroke-width="2"/>
<path d="M7.5 4V3.5C7.5 2.39543 6.60457 1.5 5.5 1.5V1.5C4.39543 1.5 3.5 2.39543 3.5 3.5V4" stroke="#281461" stroke-width="2" stroke-linecap="round"/>
</svg>
