<svg width="20" height="20" viewBox="0 0 20 20" fill="none" xmlns="http://www.w3.org/2000/svg">
<path d="M11.9691 2.02058C12.6221 1.5852 12.9487 1.36752 13.3044 1.40275C13.6602 1.43797 13.9377 1.71547 14.4927 2.27046L17.7295 5.50726C18.2845 6.06225 18.562 6.33975 18.5972 6.69552C18.6324 7.05129 18.4147 7.37782 17.9794 8.03088L16.0465 10.9302C15.3248 12.0127 14.964 12.5539 14.6966 13.1418C14.6211 13.3078 14.5513 13.4763 14.4873 13.6471C14.2607 14.2519 14.1331 14.8897 13.878 16.1654L13.6658 17.2264C13.6357 17.3767 13.6207 17.4518 13.6035 17.5056C13.4127 18.1008 12.7288 18.3771 12.1781 18.0814C12.1284 18.0547 12.0654 18.0111 11.9394 17.9239V17.9239C11.3454 17.5126 11.0483 17.307 10.7577 17.0968C7.73808 14.9134 5.08651 12.2619 2.90314 9.24225C2.69299 8.95161 2.48736 8.65459 2.07609 8.06054V8.06054C1.98887 7.93455 1.94526 7.87156 1.91856 7.82184C1.62286 7.27117 1.89916 6.58722 2.49438 6.39646C2.54812 6.37923 2.62325 6.36421 2.77351 6.33415L3.83457 6.12194C5.11024 5.86681 5.74808 5.73924 6.35287 5.51262C6.52364 5.44864 6.69217 5.37883 6.85817 5.30332C7.44606 5.03591 7.98728 4.6751 9.06973 3.95347L11.9691 2.02058Z" stroke="#FFF4D8" stroke-width="2"/>
<path d="M1.11108 18.8889L6.11108 13.8889" stroke="#FFF4D8" stroke-width="2" stroke-linecap="round"/>
</svg>
